<svg id="Layer_1" data-name="Layer 1" xmlns="http://www.w3.org/2000/svg" viewBox="0 0 1203.5 635.52"><defs><style>.cls-1{fill:#fff;}.cls-1,.cls-2,.cls-3,.cls-4,.cls-5{stroke:#000;stroke-miterlimit:10;stroke-width:3px;}.cls-3{fill:#333;}.cls-4{fill:#fe9000;}.cls-5{fill:#48abd5;}</style></defs><path class="cls-1" d="M423.85,170.23c-.75-8.36-10-14.95-21.24-14.95h5.24A16,16,0,0,1,423.85,170.23Z" transform="translate(-79 -78.48)"/><path class="cls-2" d="M407.85,155.28h-5.24c11.26,0,20.49,6.59,21.24,14.95a16,16,0,0,0-16-14.95Z" transform="translate(-79 -78.48)"/><path class="cls-3" d="M432,601.73a110.27,110.27,0,1,1-220.53,0c0-2.71.11-5.4.29-8.07a110.27,110.27,0,0,1,220,0Q432,597.67,432,601.73Z" transform="translate(-79 -78.48)"/><path class="cls-2" d="M321.71,712.5A110.89,110.89,0,0,1,210.94,601.73c0-2.59.1-5.32.3-8.1a110.77,110.77,0,0,1,220.94,0c.2,2.79.29,5.51.29,8.1A110.89,110.89,0,0,1,321.71,712.5Zm0-220.54c-57.25,0-105.34,44.69-109.48,101.74-.19,2.76-.29,5.46-.29,8a109.77,109.77,0,1,0,219.53,0c0-2.56-.09-5.27-.29-8C427,536.65,379,492,321.71,492Z" transform="translate(-79 -78.48)"/><circle class="cls-1" cx="242.71" cy="523.25" r="48.41"/><path class="cls-2" d="M321.71,554.32a47.41,47.41,0,1,1-47.41,47.41,47.47,47.47,0,0,1,47.41-47.41m0-1a48.41,48.41,0,1,0,48.41,48.41,48.41,48.41,0,0,0-48.41-48.41Z" transform="translate(-79 -78.48)"/><path class="cls-3" d="M1077.45,593.66a110.11,110.11,0,1,1-76.14-104.89A110.28,110.28,0,0,1,1077.45,593.66Z" transform="translate(-79 -78.48)"/><path class="cls-2" d="M967.18,704.43A110.79,110.79,0,1,1,1078,593.66,110.89,110.89,0,0,1,967.18,704.43Zm0-220.53a109.63,109.63,0,1,0,34,5.35A109.9,109.9,0,0,0,967.18,483.9Z" transform="translate(-79 -78.48)"/><circle class="cls-1" cx="888.18" cy="515.18" r="48.41"/><path class="cls-2" d="M967.18,546.25a47.41,47.41,0,1,1-47.41,47.41,47.47,47.47,0,0,1,47.41-47.41m0-1a48.41,48.41,0,1,0,48.41,48.41,48.41,48.41,0,0,0-48.41-48.41Z" transform="translate(-79 -78.48)"/><path class="cls-4" d="M1252.26,143.12v387.4c0,34.85-26.65,63.14-59.52,63.14h-96.47c0-42.11-17.91-79.79-46.1-104.89a126.09,126.09,0,0,0-17.93-13.44,122.86,122.86,0,0,0-130.12,0,125.62,125.62,0,0,0-17.94,13.44c-28.18,25.1-46.1,62.78-46.1,104.89H450.56C448,550,426.19,511.88,394.05,488.77a125.36,125.36,0,0,0-23.66-13.44,122.48,122.48,0,0,0-97.36,0c-1.72.72-3.42,1.53-5.11,2.34-42.12,20.52-72.05,64.41-75.07,116h-16c-32.87,0-59.52-28.29-59.52-63.14V371.43c0-34.88,26.65-63.15,59.52-63.15H281.36V143.12A65.22,65.22,0,0,1,283,128.49C289.19,100.66,312.78,80,340.88,80h851.86C1225.61,80,1252.26,108.27,1252.26,143.12Z" transform="translate(-79 -78.48)"/><path class="cls-2" d="M1192.74,81c32.27,0,58.52,27.88,58.52,62.14v387.4c0,34.26-26.25,62.14-58.52,62.14h-95.47c-.28-40.49-17.17-78.58-46.43-104.63a127,127,0,0,0-18.07-13.55,123.87,123.87,0,0,0-131.18,0A128.31,128.31,0,0,0,883.51,488c-29.26,26.07-46.15,64.16-46.43,104.64H451.5C448.77,550.12,428.08,512,394.63,488a126.87,126.87,0,0,0-23.84-13.55,123.49,123.49,0,0,0-98.15,0c-1.68.7-3.33,1.48-5.16,2.36-43.41,21.15-72.3,65.49-75.57,115.89H176.83c-32.27,0-58.52-27.88-58.52-62.14V371.43c0-34.27,26.25-62.15,58.52-62.15H282.36V143.12A64.52,64.52,0,0,1,284,128.71a62.83,62.83,0,0,1,20.38-34.15A55.82,55.82,0,0,1,340.88,81h851.86m0-1H340.88c-28.1,0-51.69,20.68-57.87,48.51a65.22,65.22,0,0,0-1.65,14.63V308.28H176.83c-32.87,0-59.52,28.27-59.52,63.15V530.52c0,34.85,26.65,63.14,59.52,63.14h16c3-51.58,33-95.47,75.07-116,1.69-.81,3.39-1.62,5.11-2.34a122.48,122.48,0,0,1,97.36,0,125.36,125.36,0,0,1,23.66,13.44c32.14,23.11,54,61.24,56.51,104.89H838.08c0-42.11,17.92-79.79,46.1-104.89a125.62,125.62,0,0,1,17.94-13.44,122.86,122.86,0,0,1,130.12,0,126.09,126.09,0,0,1,17.93,13.44c28.19,25.1,46.1,62.78,46.1,104.89h96.47c32.87,0,59.52-28.29,59.52-63.14V143.12c0-34.85-26.65-63.14-59.52-63.14Z" transform="translate(-79 -78.48)"/><rect class="cls-5" x="797.19" y="60.66" width="148.92" height="172.13" rx="16.06"/><path class="cls-2" d="M1009.05,140.14a15.08,15.08,0,0,1,15.06,15.07v140a15.08,15.08,0,0,1-15.06,15.06H892.25a15.08,15.08,0,0,1-15.06-15.06v-140a15.08,15.08,0,0,1,15.06-15.07h116.8m0-1H892.25a16.07,16.07,0,0,0-16.06,16.07v140a16.06,16.06,0,0,0,16.06,16.06h116.8a16.06,16.06,0,0,0,16.06-16.06v-140a16.07,16.07,0,0,0-16.06-16.07Z" transform="translate(-79 -78.48)"/><path class="cls-5" d="M421.22,153.2v140c0,.38-.06.73-.08,1.11-1.19,8.36-15.74,14.95-33.51,14.95H281.36V150.94a58.19,58.19,0,0,1,1.65-13.8H387.63c17.77,0,32.32,6.59,33.51,15A5,5,0,0,1,421.22,153.2Z" transform="translate(-79 -78.48)"/><path class="cls-2" d="M387.63,138.14c17.11,0,31.4,6.19,32.52,14.1v.08a4.69,4.69,0,0,1,.05.88v140a5.09,5.09,0,0,1,0,.56c0,.15,0,.3,0,.45-1.16,7.88-15.43,14-32.51,14H282.36V150.94a57.28,57.28,0,0,1,1.44-12.8H387.63m0-1H283a58.19,58.19,0,0,0-1.65,13.8V309.27H387.63c17.77,0,32.32-6.59,33.51-14.95,0-.38.08-.73.08-1.11v-140a5,5,0,0,0-.08-1.1c-1.19-8.37-15.74-15-33.51-15Z" transform="translate(-79 -78.48)"/><rect class="cls-5" x="993.52" y="60.66" width="148.92" height="172.13" rx="16.06"/><path class="cls-2" d="M1205.38,140.14a15.08,15.08,0,0,1,15.06,15.07v140a15.08,15.08,0,0,1-15.06,15.06H1088.59a15.08,15.08,0,0,1-15.07-15.06v-140a15.09,15.09,0,0,1,15.07-15.07h116.79m0-1H1088.59a16.07,16.07,0,0,0-16.07,16.07v140a16.06,16.06,0,0,0,16.07,16.06h116.79a16.06,16.06,0,0,0,16.06-16.06v-140a16.07,16.07,0,0,0-16.06-16.07Z" transform="translate(-79 -78.48)"/><rect class="cls-5" x="596.61" y="60.66" width="148.92" height="172.13" rx="16.06"/><path class="cls-2" d="M808.47,140.14a15.08,15.08,0,0,1,15.06,15.07v140a15.08,15.08,0,0,1-15.06,15.06H691.67a15.08,15.08,0,0,1-15.06-15.06v-140a15.08,15.08,0,0,1,15.06-15.07h116.8m0-1H691.67a16.07,16.07,0,0,0-16.06,16.07v140a16.06,16.06,0,0,0,16.06,16.06h116.8a16.06,16.06,0,0,0,16.06-16.06v-140a16.07,16.07,0,0,0-16.06-16.07Z" transform="translate(-79 -78.48)"/><rect class="cls-5" x="396.01" y="60.66" width="148.92" height="172.13" rx="16.06"/><path class="cls-2" d="M607.86,140.14a15.08,15.08,0,0,1,15.06,15.07v140a15.08,15.08,0,0,1-15.06,15.06H491.07A15.08,15.08,0,0,1,476,295.21v-140a15.08,15.08,0,0,1,15.06-15.07H607.86m0-1H491.07A16.07,16.07,0,0,0,475,155.21v140a16.06,16.06,0,0,0,16.06,16.06H607.86a16.06,16.06,0,0,0,16.06-16.06v-140a16.07,16.07,0,0,0-16.06-16.07Z" transform="translate(-79 -78.48)"/><rect class="cls-3" x="188.92" y="246.24" width="962.83" height="13.45"/><path class="cls-2" d="M1231.25,338.67H267.42V324.22h963.83Zm-962.83-1h961.83V325.22H268.42Z" transform="translate(-79 -78.48)"/><path class="cls-3" d="M867.16,475.33a125.62,125.62,0,0,0-17.94,13.44H423.64A125.75,125.75,0,0,0,400,475.33Z" transform="translate(-79 -78.48)"/><path class="cls-2" d="M849.41,489.27H423.48l-.13-.09a124.92,124.92,0,0,0-23.58-13.39l-2.22-1H868.92l-1.5.92a125.85,125.85,0,0,0-17.87,13.4Zm-425.61-1H849a126.21,126.21,0,0,1,16.39-12.44H402.34A127.29,127.29,0,0,1,423.8,488.27Z" transform="translate(-79 -78.48)"/><path class="cls-3" d="M1230.74,475.33v13.44H1082.45a126.18,126.18,0,0,0-17.94-13.44Z" transform="translate(-79 -78.48)"/><path class="cls-2" d="M1231.25,489.27h-149l-.15-.12a125.2,125.2,0,0,0-17.86-13.4l-1.5-.92h168.5Zm-148.61-1h147.61V475.83h-164A127.59,127.59,0,0,1,1082.64,488.27Z" transform="translate(-79 -78.48)"/><rect class="cls-3" x="188.92" y="321.54" width="962.83" height="13.45"/><path class="cls-2" d="M1231.25,414H267.42V399.52h963.83Zm-962.83-1h961.83V400.52H268.42Z" transform="translate(-79 -78.48)"/><rect class="cls-3" x="2" y="427.78" width="80.68" height="102.2" rx="7.46"/><path class="cls-2" d="M154.23,609H88.46a8,8,0,0,1-8-8V513.71a8,8,0,0,1,8-8h65.77a8,8,0,0,1,8,8V601A8,8,0,0,1,154.23,609ZM88.46,506.76a7,7,0,0,0-7,7V601a7,7,0,0,0,7,7h65.77a7,7,0,0,0,7-7V513.71a7,7,0,0,0-7-7Z" transform="translate(-79 -78.48)"/><rect class="cls-3" x="1107.37" y="422.4" width="94.13" height="99.51" rx="7.86"/><path class="cls-2" d="M1272.64,600.89h-78.41a8.37,8.37,0,0,1-8.36-8.36V508.74a8.37,8.37,0,0,1,8.36-8.36h78.41a8.37,8.37,0,0,1,8.36,8.36v83.79A8.37,8.37,0,0,1,1272.64,600.89Zm-78.41-99.51a7.37,7.37,0,0,0-7.36,7.36v83.79a7.37,7.37,0,0,0,7.36,7.36h78.41a7.37,7.37,0,0,0,7.36-7.36V508.74a7.37,7.37,0,0,0-7.36-7.36Z" transform="translate(-79 -78.48)"/></svg>