<svg id="Layer_1" data-name="Layer 1" xmlns="http://www.w3.org/2000/svg" viewBox="0 0 1203.5 635.5"><defs><style>.cls-1{fill:#fff;}.cls-1,.cls-2,.cls-3,.cls-4,.cls-5{stroke:#000;stroke-miterlimit:10;stroke-width:3px;}.cls-3{fill:#333;}.cls-4,.cls-6{fill:#fe9000;}.cls-5{fill:#48abd5;}</style></defs><path class="cls-1" d="M421.22,163.53a16.32,16.32,0,0,0-1.39-1.64" transform="translate(-79 -78.5)"/><path class="cls-1" d="M421.22,162.45a15.14,15.14,0,0,0-1.39-1.8" transform="translate(-79 -78.5)"/><path class="cls-2" d="M421.22,163.53a16.32,16.32,0,0,0-1.39-1.64" transform="translate(-79 -78.5)"/><path class="cls-2" d="M421.22,162.45a15.14,15.14,0,0,0-1.39-1.8" transform="translate(-79 -78.5)"/><path class="cls-3" d="M432,601.73a110.27,110.27,0,1,1-220.53,0c0-2.71.11-5.4.29-8.07a110.27,110.27,0,0,1,220,0Q432,597.67,432,601.73Z" transform="translate(-79 -78.5)"/><path class="cls-2" d="M321.71,712.5A110.89,110.89,0,0,1,210.94,601.73c0-2.59.1-5.32.3-8.1a110.77,110.77,0,0,1,220.94,0c.2,2.79.29,5.51.29,8.1A110.89,110.89,0,0,1,321.71,712.5Zm0-220.54c-57.25,0-105.34,44.69-109.48,101.74-.19,2.76-.29,5.46-.29,8a109.77,109.77,0,1,0,219.53,0c0-2.56-.09-5.27-.29-8C427,536.65,379,492,321.71,492Z" transform="translate(-79 -78.5)"/><circle class="cls-1" cx="242.71" cy="523.23" r="48.41"/><path class="cls-2" d="M321.71,554.32a47.41,47.41,0,1,1-47.41,47.41,47.47,47.47,0,0,1,47.41-47.41m0-1a48.41,48.41,0,1,0,48.41,48.41,48.41,48.41,0,0,0-48.41-48.41Z" transform="translate(-79 -78.5)"/><path class="cls-3" d="M1077.45,593.66a110.11,110.11,0,1,1-76.14-104.89A110.28,110.28,0,0,1,1077.45,593.66Z" transform="translate(-79 -78.5)"/><path class="cls-2" d="M967.18,704.43A110.79,110.79,0,1,1,1078,593.66,110.89,110.89,0,0,1,967.18,704.43Zm0-220.53a109.63,109.63,0,1,0,34,5.35A109.9,109.9,0,0,0,967.18,483.9Z" transform="translate(-79 -78.5)"/><circle class="cls-1" cx="888.18" cy="515.16" r="48.41"/><path class="cls-2" d="M967.18,546.25a47.41,47.41,0,1,1-47.41,47.41,47.47,47.47,0,0,1,47.41-47.41m0-1a48.41,48.41,0,1,0,48.41,48.41,48.41,48.41,0,0,0-48.41-48.41Z" transform="translate(-79 -78.5)"/><path class="cls-4" d="M281.36,308.27v0H176.83c-32.87,0-59.52,28.27-59.52,63.15V530.52c0,34.85,26.65,63.14,59.52,63.14h16c3-51.58,33-95.47,75.07-116,1.69-.81,3.39-1.62,5.11-2.34a122.48,122.48,0,0,1,97.36,0,125.36,125.36,0,0,1,23.66,13.44c32.14,23.11,54,61.24,56.51,104.89H838.08c0-42.11,17.92-79.79,46.1-104.89a125.62,125.62,0,0,1,17.94-13.44,122.92,122.92,0,0,1,130.12,0,126.09,126.09,0,0,1,17.93,13.44c28.19,25.1,46.1,62.78,46.1,104.89h96.47c32.87,0,59.52-28.29,59.52-63.14V143.14c0-34.85-26.65-63.14-59.52-63.14H340.88c-1.82,0-3.63.09-5.41.26-25.68,2.46-46.68,22.23-52.46,48.25a63.07,63.07,0,0,0-1.37,8.63c0,.33-.07.67-.08,1-.14,1.65-.2,3.31-.2,5v11.62" transform="translate(-79 -78.5)"/><path class="cls-2" d="M1192.74,81c32.27,0,58.52,27.87,58.52,62.14V530.52c0,34.27-26.25,62.14-58.52,62.14h-95.47c-.28-40.48-17.17-78.57-46.43-104.63a127.65,127.65,0,0,0-18.07-13.54,123.9,123.9,0,0,0-131.18,0A127.61,127.61,0,0,0,883.51,488c-29.26,26.07-46.15,64.16-46.43,104.63H451.5C448.77,550.13,428.08,512,394.63,488a126.27,126.27,0,0,0-23.84-13.54,123.55,123.55,0,0,0-98.15,0c-1.68.71-3.33,1.49-5.16,2.37-43.41,21.14-72.3,65.48-75.57,115.88H176.83c-32.27,0-58.52-27.87-58.52-62.14V371.44c0-34.27,26.25-62.15,58.52-62.15H282.36V143.14A64.61,64.61,0,0,1,284,128.72a62.84,62.84,0,0,1,20.38-34.14A55.82,55.82,0,0,1,340.88,81h851.86M281.36,308.27v0H176.83c-32.87,0-59.52,28.27-59.52,63.15V530.52c0,34.85,26.65,63.14,59.52,63.14h16c3-51.58,33-95.47,75.07-116,1.69-.81,3.39-1.62,5.11-2.34a122.48,122.48,0,0,1,97.36,0,125.36,125.36,0,0,1,23.66,13.44c32.14,23.11,54,61.24,56.51,104.89H838.08c0-42.11,17.92-79.79,46.1-104.89a125.62,125.62,0,0,1,17.94-13.44,122.92,122.92,0,0,1,130.12,0,126.09,126.09,0,0,1,17.93,13.44c28.19,25.1,46.1,62.78,46.1,104.89h96.47c32.87,0,59.52-28.29,59.52-63.14V143.14c0-34.85-26.65-63.14-59.52-63.14H340.88c-1.82,0-3.63.09-5.41.26-25.68,2.46-46.68,22.23-52.46,48.25a63.07,63.07,0,0,0-1.37,8.63c0,.33-.07.67-.08,1-.14,1.65-.2,3.31-.2,5v11.62" transform="translate(-79 -78.5)"/><path class="cls-5" d="M875.13,139.14H1007c10,0,18.13,9.77,18.13,21.83V351.18c0,12.05-8.12,21.82-18.13,21.82H875.13c-10,0-18.13-9.77-18.13-21.82V161C857,148.91,865.12,139.14,875.13,139.14Z" transform="translate(-79 -78.5)"/><path class="cls-2" d="M1007,140.5c9.37,0,17,9.18,17,20.47V351.18c0,11.28-7.63,20.46-17,20.46H875.13c-9.37,0-17-9.18-17-20.46V161c0-11.29,7.63-20.47,17-20.47H1007m0-1.36H875.13c-10,0-18.13,9.77-18.13,21.83V351.18c0,12.05,8.12,21.82,18.13,21.82H1007c10,0,18.13-9.77,18.13-21.82V161c0-12.06-8.12-21.83-18.13-21.83Z" transform="translate(-79 -78.5)"/><path class="cls-5" d="M421.22,153.2v140c0,.38-.08.73-.11,1.11-1.65,8.36-21.86,14.95-46.54,14.95H227V150.94a42.86,42.86,0,0,1,2.29-13.8H374.57c24.68,0,44.89,6.59,46.54,15A3.64,3.64,0,0,1,421.22,153.2Z" transform="translate(-79 -78.5)"/><path class="cls-2" d="M374.57,138.14c23.77,0,43.6,6.19,45.16,14.1v0l0,0a3.37,3.37,0,0,1,.07.88v140a5.07,5.07,0,0,1-.05.56c0,.15,0,.3,0,.45-1.63,7.88-21.43,14-45.16,14H228.39V150.94a42.18,42.18,0,0,1,2-12.8H374.57m0-1H229.29a42.86,42.86,0,0,0-2.29,13.8V309.27H374.57c24.68,0,44.89-6.59,46.54-14.95,0-.38.11-.73.11-1.11v-140a3.64,3.64,0,0,0-.11-1.1c-1.65-8.37-21.86-15-46.54-15Z" transform="translate(-79 -78.5)"/><path class="cls-5" d="M1072.06,139.14h131.32c10,0,18.06,9.77,18.06,21.83V351.18c0,12.05-8.09,21.82-18.06,21.82H1072.06c-10,0-18.06-9.77-18.06-21.82V161C1054,148.91,1062.09,139.14,1072.06,139.14Z" transform="translate(-79 -78.5)"/><path class="cls-2" d="M1203.38,140.5c9.34,0,16.93,9.18,16.93,20.47V351.18c0,11.28-7.59,20.46-16.93,20.46H1072.06c-9.34,0-16.94-9.18-16.94-20.46V161c0-11.29,7.6-20.47,16.94-20.47h131.32m0-1.36H1072.06c-10,0-18.06,9.77-18.06,21.83V351.18c0,12.05,8.09,21.82,18.06,21.82h131.32c10,0,18.06-9.77,18.06-21.82V161c0-12.06-8.09-21.83-18.06-21.83Z" transform="translate(-79 -78.5)"/><path class="cls-5" d="M824.53,161V351.18c0,12.05-8.09,21.82-18.07,21.82H675.07c-10,0-18.07-9.77-18.07-21.82V161c0-12.06,8.09-21.83,18.07-21.83H806.46C816.44,139.14,824.53,148.91,824.53,161Z" transform="translate(-79 -78.5)"/><path class="cls-2" d="M806.46,140.5c9.34,0,16.94,9.18,16.94,20.47V351.18c0,11.28-7.6,20.46-16.94,20.46H675.07c-9.34,0-16.94-9.18-16.94-20.46V161c0-11.29,7.6-20.47,16.94-20.47H806.46m0-1.36H675.07c-10,0-18.07,9.77-18.07,21.83V351.18c0,12.05,8.09,21.82,18.07,21.82H806.46c10,0,18.07-9.77,18.07-21.82V161c0-12.06-8.09-21.83-18.07-21.83Z" transform="translate(-79 -78.5)"/><path class="cls-5" d="M623.92,161V351.18c0,12.05-8.11,21.82-18.11,21.82H474.11c-10,0-18.11-9.77-18.11-21.82V161c0-12.06,8.11-21.83,18.11-21.83h131.7C615.81,139.14,623.92,148.91,623.92,161Z" transform="translate(-79 -78.5)"/><path class="cls-2" d="M605.81,140.5c9.36,0,17,9.18,17,20.47V351.18c0,11.28-7.62,20.46-17,20.46H474.11c-9.36,0-17-9.18-17-20.46V161c0-11.29,7.62-20.47,17-20.47h131.7m0-1.36H474.11c-10,0-18.11,9.77-18.11,21.83V351.18c0,12.05,8.11,21.82,18.11,21.82h131.7c10,0,18.11-9.77,18.11-21.82V161c0-12.06-8.11-21.83-18.11-21.83Z" transform="translate(-79 -78.5)"/><path class="cls-3" d="M867.16,475.33a125.62,125.62,0,0,0-17.94,13.44H423.64A125.75,125.75,0,0,0,400,475.33Z" transform="translate(-79 -78.5)"/><path class="cls-2" d="M849.41,489.27H423.48l-.13-.09a124.92,124.92,0,0,0-23.58-13.39l-2.22-1H868.92l-1.5.92a125.85,125.85,0,0,0-17.87,13.4Zm-425.61-1H849a126.21,126.21,0,0,1,16.39-12.44H402.34A127.29,127.29,0,0,1,423.8,488.27Z" transform="translate(-79 -78.5)"/><path class="cls-3" d="M1230.74,475.33v13.44H1082.45a126.18,126.18,0,0,0-17.94-13.44Z" transform="translate(-79 -78.5)"/><path class="cls-2" d="M1231.25,489.27h-149l-.15-.12a125.2,125.2,0,0,0-17.86-13.4l-1.5-.92h168.5Zm-148.61-1h147.61V475.83h-164A127.59,127.59,0,0,1,1082.64,488.27Z" transform="translate(-79 -78.5)"/><rect class="cls-3" x="188.92" y="321.52" width="962.83" height="13.45"/><path class="cls-2" d="M1231.25,414H267.42V399.52h963.83Zm-962.83-1h961.83V400.52H268.42Z" transform="translate(-79 -78.5)"/><rect class="cls-3" x="2" y="427.76" width="80.68" height="102.2" rx="7.46"/><path class="cls-2" d="M154.23,609H88.46a8,8,0,0,1-8-8V513.71a8,8,0,0,1,8-8h65.77a8,8,0,0,1,8,8V601A8,8,0,0,1,154.23,609ZM88.46,506.76a7,7,0,0,0-7,7V601a7,7,0,0,0,7,7h65.77a7,7,0,0,0,7-7V513.71a7,7,0,0,0-7-7Z" transform="translate(-79 -78.5)"/><rect class="cls-3" x="1107.37" y="422.38" width="94.13" height="99.51" rx="7.86"/><path class="cls-2" d="M1272.64,600.89h-78.41a8.37,8.37,0,0,1-8.36-8.36V508.74a8.37,8.37,0,0,1,8.36-8.36h78.41a8.37,8.37,0,0,1,8.36,8.36v83.79A8.37,8.37,0,0,1,1272.64,600.89Zm-78.41-99.51a7.37,7.37,0,0,0-7.36,7.36v83.79a7.37,7.37,0,0,0,7.36,7.36h78.41a7.37,7.37,0,0,0,7.36-7.36V508.74a7.37,7.37,0,0,0-7.36-7.36Z" transform="translate(-79 -78.5)"/><path class="cls-4" d="M430,81v-.74H271.87a43.06,43.06,0,0,0-28.22,10.53,48.71,48.71,0,0,0-15.75,26.45,50.56,50.56,0,0,0-1.26,11.18V138h163" transform="translate(-79 -78.5)"/><path d="M429.54,84.77a1.5,1.5,0,0,0,0-3,1.5,1.5,0,0,0,0,3Z" transform="translate(-79 -78.5)"/><path class="cls-6" d="M428.47,85.25a1.5,1.5,0,0,0,0-3,1.5,1.5,0,0,0,0,3Z" transform="translate(-79 -78.5)"/><path class="cls-6" d="M429.21,84.74c.55.05,1.11.09,1.66.16l-.4-.05c.43.06.84.21,1.26.31s.85.19,1.27.26a1.67,1.67,0,0,0,1.16-.15,1.55,1.55,0,0,0,.69-.9,1.53,1.53,0,0,0-1.05-1.85,17.49,17.49,0,0,0-2.7-.45,1.47,1.47,0,0,0-1.06.44,1.5,1.5,0,0,0-.44,1.06,1.54,1.54,0,0,0,.44,1.06,1.74,1.74,0,0,0,1.06.44l.56.06-.4,0a14.46,14.46,0,0,1,1.74.34l.8-2.9a19,19,0,0,1-2.11-.48,16,16,0,0,0-2.48-.3,1.48,1.48,0,0,0-1.06.44,1.52,1.52,0,0,0-.44,1.06,1.46,1.46,0,0,0,.44,1.06,1.69,1.69,0,0,0,1.06.44Z" transform="translate(-79 -78.5)"/></svg>