<svg id="Layer_1" data-name="Layer 1" xmlns="http://www.w3.org/2000/svg" viewBox="0 0 1329.5 656.5"><defs><style>.cls-1{fill:#fff;}.cls-1,.cls-2,.cls-3,.cls-4,.cls-5{stroke:#000;stroke-miterlimit:10;stroke-width:3px;}.cls-3,.cls-6{fill:#fe9000;}.cls-4{fill:#48abd5;}.cls-5{fill:#333;}</style></defs><path class="cls-1" d="M387,166.53a15.7,15.7,0,0,0-1.54-1.64" transform="translate(-9 -81.5)"/><path class="cls-1" d="M387,165.45a14.51,14.51,0,0,0-1.54-1.8" transform="translate(-9 -81.5)"/><path class="cls-2" d="M387,166.53a15.7,15.7,0,0,0-1.54-1.64" transform="translate(-9 -81.5)"/><path class="cls-2" d="M387,165.45a14.51,14.51,0,0,0-1.54-1.8" transform="translate(-9 -81.5)"/><path class="cls-3" d="M232.44,311.27v0H116.94c-36.32,0-65.77,28.27-65.77,63.15V533.52c0,34.85,29.45,63.14,65.77,63.14h17.7c3.34-51.58,36.41-95.47,83-116,1.87-.81,3.75-1.62,5.65-2.34a148.42,148.42,0,0,1,107.58,0A143.34,143.34,0,0,1,357,491.77C392.47,514.88,416.6,553,419.4,596.66H847.59c0-42.11,19.8-79.79,50.94-104.89a139.15,139.15,0,0,1,19.82-13.44,148,148,0,0,1,143.78,0,138.49,138.49,0,0,1,19.81,13.44c31.15,25.1,50.94,62.78,50.94,104.89h106.6c36.32,0,65.76-28.29,65.76-63.14V146.14c0-34.85-29.44-63.14-65.76-63.14H298.21c-2,0-4,.09-6,.26-28.37,2.46-51.58,22.23-58,48.25a59,59,0,0,0-1.51,8.63c0,.33-.08.67-.09,1-.15,1.65-.22,3.31-.22,5v11.62" transform="translate(-9 -81.5)"/><path class="cls-2" d="M1239.48,84c35.65,0,64.66,27.87,64.66,62.14V533.52c0,34.27-29,62.14-64.66,62.14H1134c-.3-40.48-19-78.57-51.3-104.63a140.71,140.71,0,0,0-20-13.54,149.18,149.18,0,0,0-144.94,0,139.94,139.94,0,0,0-20,13.55c-32.34,26.07-51,64.16-51.31,104.63h-426c-3-42.53-25.88-80.65-62.84-104.7a143.88,143.88,0,0,0-26.35-13.54,149.69,149.69,0,0,0-108.44,0c-1.86.71-3.68,1.49-5.7,2.37-48,21.14-79.89,65.48-83.51,115.88H116.94c-35.65,0-64.66-27.87-64.66-62.14V374.44c0-34.27,29-62.15,64.66-62.15H233.55V146.14a58.9,58.9,0,0,1,1.79-14.42,62.08,62.08,0,0,1,22.53-34.14A65.62,65.62,0,0,1,298.21,84h941.27m-1007,227.27v0H116.94c-36.32,0-65.77,28.27-65.77,63.15V533.52c0,34.85,29.45,63.14,65.77,63.14h17.7c3.34-51.58,36.41-95.47,83-116,1.87-.81,3.75-1.62,5.65-2.34a148.42,148.42,0,0,1,107.58,0A143.34,143.34,0,0,1,357,491.77C392.47,514.88,416.6,553,419.4,596.66H847.59c0-42.11,19.8-79.79,50.94-104.89a139.15,139.15,0,0,1,19.82-13.44,148,148,0,0,1,143.78,0,138.49,138.49,0,0,1,19.81,13.44c31.15,25.1,50.94,62.78,50.94,104.89h106.6c36.32,0,65.76-28.29,65.76-63.14V146.14c0-34.85-29.44-63.14-65.76-63.14H298.21c-2,0-4,.09-6,.26-28.37,2.46-51.58,22.23-58,48.25a59,59,0,0,0-1.51,8.63c0,.33-.08.67-.09,1-.15,1.65-.22,3.31-.22,5v11.62" transform="translate(-9 -81.5)"/><path class="cls-4" d="M876.49,142.14h156.27A21.66,21.66,0,0,1,1054.25,164V354.18A21.66,21.66,0,0,1,1032.76,376H876.49A21.66,21.66,0,0,1,855,354.18V164A21.66,21.66,0,0,1,876.49,142.14Z" transform="translate(-9 -81.5)"/><path class="cls-2" d="M1032.76,143.5A20.33,20.33,0,0,1,1052.91,164V354.18a20.33,20.33,0,0,1-20.15,20.46H876.49a20.33,20.33,0,0,1-20.15-20.46V164a20.33,20.33,0,0,1,20.15-20.47h156.27m0-1.36H876.49A21.66,21.66,0,0,0,855,164V354.18A21.66,21.66,0,0,0,876.49,376h156.27a21.66,21.66,0,0,0,21.49-21.82V164a21.66,21.66,0,0,0-21.49-21.83Z" transform="translate(-9 -81.5)"/><path class="cls-4" d="M387,156.2v140c0,.38-.09.73-.12,1.11-1.83,8.36-24.15,14.95-51.42,14.95H172.38V153.94a39.13,39.13,0,0,1,2.53-13.8H335.44c27.27,0,49.59,6.59,51.42,15A3.35,3.35,0,0,1,387,156.2Z" transform="translate(-9 -81.5)"/><path class="cls-2" d="M335.44,141.14c26.26,0,48.17,6.19,49.9,14.1v.08a2.65,2.65,0,0,1,.09.88v140a3.43,3.43,0,0,1-.06.56c0,.15-.05.3-.06.45-1.79,7.88-23.68,14-49.89,14H173.91V153.94a38.52,38.52,0,0,1,2.21-12.8H335.44m0-1H174.91a39.13,39.13,0,0,0-2.53,13.8V312.27H335.44c27.27,0,49.59-6.59,51.42-14.95,0-.38.12-.73.12-1.11v-140a3.35,3.35,0,0,0-.12-1.1c-1.83-8.37-24.15-15-51.42-15Z" transform="translate(-9 -81.5)"/><path class="cls-4" d="M1093.48,142.14H1249.7A21.66,21.66,0,0,1,1271.19,164V354.18A21.66,21.66,0,0,1,1249.7,376H1093.48A21.65,21.65,0,0,1,1072,354.18V164A21.66,21.66,0,0,1,1093.48,142.14Z" transform="translate(-9 -81.5)"/><path class="cls-2" d="M1249.7,143.5A20.33,20.33,0,0,1,1269.85,164V354.18a20.33,20.33,0,0,1-20.15,20.46H1093.48a20.33,20.33,0,0,1-20.14-20.46V164a20.33,20.33,0,0,1,20.14-20.47H1249.7m0-1.36H1093.48A21.66,21.66,0,0,0,1072,164V354.18A21.65,21.65,0,0,0,1093.48,376H1249.7a21.66,21.66,0,0,0,21.49-21.82V164a21.66,21.66,0,0,0-21.49-21.83Z" transform="translate(-9 -81.5)"/><path class="cls-4" d="M832.62,164V354.18A21.73,21.73,0,0,1,811,376H653.64A21.73,21.73,0,0,1,632,354.18V164a21.73,21.73,0,0,1,21.64-21.83H811A21.73,21.73,0,0,1,832.62,164Z" transform="translate(-9 -81.5)"/><path class="cls-2" d="M811,143.5A20.4,20.4,0,0,1,831.27,164V354.18A20.4,20.4,0,0,1,811,374.64H653.64a20.4,20.4,0,0,1-20.29-20.46V164a20.4,20.4,0,0,1,20.29-20.47H811m0-1.36H653.64A21.73,21.73,0,0,0,632,164V354.18A21.73,21.73,0,0,0,653.64,376H811a21.73,21.73,0,0,0,21.64-21.82V164A21.73,21.73,0,0,0,811,142.14Z" transform="translate(-9 -81.5)"/><path class="cls-4" d="M611,164V354.18A21.75,21.75,0,0,1,589.28,376H431.67A21.74,21.74,0,0,1,410,354.18V164a21.75,21.75,0,0,1,21.67-21.83H589.28A21.76,21.76,0,0,1,611,164Z" transform="translate(-9 -81.5)"/><path class="cls-2" d="M589.28,143.5A20.42,20.42,0,0,1,609.61,164V354.18a20.42,20.42,0,0,1-20.33,20.46H431.67a20.42,20.42,0,0,1-20.32-20.46V164a20.42,20.42,0,0,1,20.32-20.47H589.28m0-1.36H431.67A21.75,21.75,0,0,0,410,164V354.18A21.74,21.74,0,0,0,431.67,376H589.28A21.75,21.75,0,0,0,611,354.18V164a21.76,21.76,0,0,0-21.68-21.83Z" transform="translate(-9 -81.5)"/><path class="cls-5" d="M879.72,478.33a139.15,139.15,0,0,0-19.82,13.44H389.65a143.1,143.1,0,0,0-26.15-13.44Z" transform="translate(-9 -81.5)"/><path class="cls-2" d="M860.11,492.27H389.47l-.14-.09a142.2,142.2,0,0,0-26.05-13.39l-2.46-1H881.66l-1.65.92a138.92,138.92,0,0,0-19.74,13.4Zm-470.28-1H859.69a139.82,139.82,0,0,1,18.11-12.44H366.11A144.09,144.09,0,0,1,389.83,491.27Z" transform="translate(-9 -81.5)"/><path class="cls-5" d="M1281.47,478.33v13.44H1117.61a139.15,139.15,0,0,0-19.82-13.44Z" transform="translate(-9 -81.5)"/><path class="cls-2" d="M1282,492.27H1117.4l-.16-.12a138.92,138.92,0,0,0-19.74-13.4l-1.66-.92H1282Zm-164.2-1h163.1V478.83H1099.71A139.82,139.82,0,0,1,1117.82,491.27Z" transform="translate(-9 -81.5)"/><rect class="cls-5" x="208.59" y="321.52" width="1063.88" height="13.45"/><path class="cls-2" d="M1282,417H217V402.52H1282ZM218.14,416H1280.92V403.52H218.14Z" transform="translate(-9 -81.5)"/><rect class="cls-5" x="2.05" y="427.76" width="89.15" height="102.2" rx="7.46"/><path class="cls-2" d="M92,612H19.29c-4.85,0-8.79-3.57-8.79-8V516.71c0-4.38,3.94-8,8.79-8H92c4.85,0,8.8,3.57,8.8,8V604C100.76,608.39,96.81,612,92,612ZM19.29,509.76c-4.24,0-7.69,3.12-7.69,7V604c0,3.83,3.45,7,7.69,7H92c4.24,0,7.69-3.13,7.69-7V516.71c0-3.83-3.45-7-7.69-7Z" transform="translate(-9 -81.5)"/><rect class="cls-5" x="1223.44" y="422.38" width="104.01" height="99.51" rx="7.86"/><path class="cls-2" d="M1327.76,603.89h-86.64c-5.09,0-9.24-3.75-9.24-8.36V511.74c0-4.61,4.15-8.36,9.24-8.36h86.64c5.1,0,9.24,3.75,9.24,8.36v83.79C1337,600.14,1332.86,603.89,1327.76,603.89Zm-86.64-99.51c-4.48,0-8.13,3.3-8.13,7.36v83.79c0,4.05,3.65,7.36,8.13,7.36h86.64c4.49,0,8.14-3.31,8.14-7.36V511.74c0-4.06-3.65-7.36-8.14-7.36Z" transform="translate(-9 -81.5)"/><path class="cls-3" d="M396.68,84v-.74H222a50.63,50.63,0,0,0-31.19,10.53,48.09,48.09,0,0,0-17.4,26.45A45.84,45.84,0,0,0,172,131.42V141h180.1" transform="translate(-9 -81.5)"/><path d="M396.17,87.77a1.5,1.5,0,0,0,0-3,1.5,1.5,0,0,0,0,3Z" transform="translate(-9 -81.5)"/><path class="cls-6" d="M395,88.25a1.5,1.5,0,0,0,0-3,1.5,1.5,0,0,0,0,3Z" transform="translate(-9 -81.5)"/><path class="cls-6" d="M395.81,87.74c.64.06,1.28.09,1.92.17l-.4,0c.47.07.93.22,1.39.32s1.14.21,1.72.29A1.46,1.46,0,0,0,401.5,88a1.59,1.59,0,0,0,.42-.86,1.5,1.5,0,0,0-1.08-1.65,20.88,20.88,0,0,0-2.94-.45,1.52,1.52,0,0,0-1.06.44,1.5,1.5,0,0,0,0,2.12,1.71,1.71,0,0,0,1.06.44c.3,0,.59.06.88.09l-.39,0c.55.08,1.11.18,1.65.31l.4-3h-.08l.4.05c-.78-.11-1.53-.31-2.3-.48a21.26,21.26,0,0,0-2.65-.29,1.52,1.52,0,0,0-1.07.44,1.51,1.51,0,0,0-.43,1.06,1.49,1.49,0,0,0,.43,1.06,1.74,1.74,0,0,0,1.07.44Z" transform="translate(-9 -81.5)"/><path d="M352,142.59a1.5,1.5,0,0,0,0-3,1.5,1.5,0,0,0,0,3Z" transform="translate(-9 -81.5)"/><path d="M353.31,142.59a1.5,1.5,0,0,0,0-3,1.5,1.5,0,0,0,0,3Z" transform="translate(-9 -81.5)"/><circle class="cls-5" cx="270.5" cy="529" r="126"/><circle class="cls-1" cx="271" cy="529.5" r="50.5"/><circle class="cls-5" cx="980.5" cy="522" r="126"/><circle class="cls-1" cx="981" cy="522.5" r="50.5"/></svg>